<svg xmlns="http://www.w3.org/2000/svg" viewBox="0 0 48 48"><defs><style>.cls-1{fill:#fff;stroke:#fff;stroke-miterlimit:10;}</style></defs><title>Ativo 1</title><g id="Camada_2" data-name="Camada 2"><g id="Camada_1-2" data-name="Camada 1"><rect x="0.5" y="0.5" width="47" height="47" rx="3.58"/><path d="M43.92,1A3.08,3.08,0,0,1,47,4.08V43.92A3.08,3.08,0,0,1,43.92,47H4.08A3.08,3.08,0,0,1,1,43.92V4.08A3.08,3.08,0,0,1,4.08,1H43.92m0-1H4.08A4.08,4.08,0,0,0,0,4.08V43.92A4.08,4.08,0,0,0,4.08,48H43.92A4.08,4.08,0,0,0,48,43.92V4.08A4.08,4.08,0,0,0,43.92,0Z"/><path class="cls-1" d="M6.3,35.3V32.84a10,10,0,0,0,3.59,4.29,10,10,0,0,0,5.63,1.55,9,9,0,0,0,4.22-1,7.69,7.69,0,0,0,4.22-7,8.57,8.57,0,0,0-.73-3.7,8.94,8.94,0,0,0-2.42-3,40,40,0,0,0-4.88-3.4l-1.46-.91a35.54,35.54,0,0,1-3.24-2.19,10.83,10.83,0,0,1-2.14-2.24A7.22,7.22,0,0,1,7.9,11.11a6,6,0,0,1,2-4.83A7.52,7.52,0,0,1,15,4.54a8.05,8.05,0,0,1,6.66,3.11V10a7.91,7.91,0,0,0-2.87-3,7.68,7.68,0,0,0-4-1.09A5.47,5.47,0,0,0,11,7.28a4.87,4.87,0,0,0-1.55,3.79,5.94,5.94,0,0,0,1.43,4,19.19,19.19,0,0,0,4.86,3.63,45,45,0,0,1,6.53,4.47,9.5,9.5,0,0,1,2.39,3.33,10.42,10.42,0,0,1,.76,4.06,9.23,9.23,0,0,1-1.33,5,8.8,8.8,0,0,1-3.65,3.31A11.63,11.63,0,0,1,15.16,40,10.07,10.07,0,0,1,6.3,35.3Z"/><path class="cls-1" d="M25.29,2.32h1.77c2.93,0,5.07.68,6.44,2s2.06,3.34,2.06,6a8,8,0,0,1-1.33,4.35A6.75,6.75,0,0,1,31,17.48a11.46,11.46,0,0,1,7.38,4A13,13,0,0,1,41,29.92a14.52,14.52,0,0,1-1.83,7.35,12.8,12.8,0,0,1-5,4.95A14.56,14.56,0,0,1,27.06,44H25.29ZM27.51,17A6,6,0,0,0,32,15a6.68,6.68,0,0,0,1.84-4.78,6.71,6.71,0,0,0-1.53-4.78,6.36,6.36,0,0,0-4.8-1.61h-.45V17Zm0,25.43a11.31,11.31,0,0,0,10.16-6A13.07,13.07,0,0,0,39.22,30q0-5.72-3-8.64t-8.69-2.91h-.45V42.41Z"/></g></g></svg>